<svg data-v-fde0c5aa="" xmlns="http://www.w3.org/2000/svg" viewBox="0 0 300 300" class="iconLeft"><!----><defs data-v-fde0c5aa=""><!----></defs><rect data-v-fde0c5aa="" fill="transparent" x="0" y="0" width="300px" height="300px" class="logo-background-square"></rect><defs data-v-fde0c5aa=""><!----></defs><g data-v-fde0c5aa="" id="25978280-4b71-447c-b4da-9c3674e4265f" fill="#000000" transform="matrix(0.9120697625103747,0,0,0.9120697625103747,83.08583151031092,140.81545733495338)"><path d="M4.03 12.58L4.03 12.58Q4.44 12.58 4.80 12.47Q5.15 12.37 5.41 12.17Q5.67 11.98 5.81 11.69Q5.96 11.41 5.96 11.05L5.96 11.05Q5.96 10.63 5.76 10.34Q5.56 10.04 5.22 9.82Q4.89 9.60 4.46 9.42Q4.04 9.24 3.60 9.06Q3.16 8.87 2.73 8.65Q2.31 8.43 1.98 8.12Q1.64 7.81 1.44 7.38Q1.24 6.95 1.24 6.34L1.24 6.34Q1.24 5.67 1.49 5.15Q1.74 4.62 2.20 4.25Q2.66 3.88 3.29 3.69Q3.93 3.49 4.70 3.49L4.70 3.49Q4.92 3.49 5.22 3.51Q5.51 3.53 5.84 3.58Q6.18 3.62 6.55 3.69Q6.91 3.77 7.28 3.88L7.28 3.88L7.01 5.20L6.88 5.27Q6.52 5.11 6.18 5.00Q5.84 4.89 5.53 4.82Q5.22 4.75 4.96 4.72Q4.70 4.70 4.50 4.70L4.50 4.70Q4.12 4.70 3.81 4.79Q3.51 4.87 3.29 5.04Q3.08 5.22 2.96 5.47Q2.84 5.71 2.84 6.04L2.84 6.04Q2.84 6.47 3.04 6.77Q3.25 7.08 3.58 7.31Q3.91 7.54 4.34 7.72Q4.76 7.90 5.21 8.09Q5.66 8.28 6.09 8.50Q6.51 8.72 6.85 9.02Q7.18 9.32 7.38 9.72Q7.59 10.13 7.59 10.70L7.59 10.70Q7.59 11.33 7.32 11.89Q7.05 12.46 6.57 12.88Q6.08 13.30 5.39 13.54Q4.71 13.78 3.87 13.78L3.87 13.78Q3.53 13.78 3.15 13.74Q2.78 13.69 2.39 13.61Q2.00 13.53 1.61 13.41Q1.23 13.28 0.88 13.13L0.88 13.13L1.15 11.79L1.29 11.72Q2.01 12.11 2.70 12.35Q3.39 12.58 4.03 12.58ZM14.84 12.15L14.84 12.98Q14.36 13.37 13.76 13.58Q13.17 13.78 12.48 13.78L12.48 13.78Q11.72 13.78 11.10 13.52Q10.49 13.27 10.06 12.81Q9.63 12.36 9.39 11.73Q9.16 11.09 9.16 10.34L9.16 10.34Q9.16 9.44 9.47 8.69Q9.79 7.94 10.33 7.40Q10.88 6.86 11.61 6.56Q12.35 6.26 13.20 6.26L13.20 6.26Q13.38 6.26 13.60 6.28Q13.81 6.30 14.03 6.33Q14.25 6.36 14.47 6.42Q14.68 6.48 14.87 6.56L14.87 6.56L14.57 7.83L14.43 7.90Q14.31 7.81 14.14 7.73Q13.97 7.64 13.78 7.58Q13.59 7.52 13.38 7.48Q13.18 7.44 12.98 7.44L12.98 7.44Q12.54 7.44 12.16 7.62Q11.79 7.79 11.50 8.11Q11.22 8.44 11.05 8.92Q10.89 9.39 10.89 9.99L10.89 9.99Q10.89 10.62 11.07 11.09Q11.25 11.57 11.56 11.88Q11.87 12.20 12.30 12.36Q12.74 12.52 13.24 12.52L13.24 12.52Q13.56 12.52 13.96 12.45Q14.36 12.37 14.84 12.15L14.84 12.15ZM16.72 13.64L16.72 2.69L18.38 2.69L18.38 7.57Q18.63 7.34 18.93 7.11Q19.24 6.88 19.57 6.69Q19.91 6.50 20.29 6.38Q20.67 6.26 21.07 6.26L21.07 6.26Q21.56 6.26 21.96 6.45Q22.37 6.63 22.65 6.97Q22.94 7.30 23.10 7.77Q23.26 8.24 23.26 8.82L23.26 8.82L23.26 13.64L21.59 13.64L21.59 9.00Q21.59 8.63 21.49 8.36Q21.39 8.08 21.21 7.90Q21.03 7.71 20.78 7.62Q20.54 7.53 20.25 7.53L20.25 7.53Q19.74 7.53 19.29 7.79Q18.84 8.05 18.38 8.47L18.38 8.47L18.38 13.64L16.72 13.64ZM28.60 13.78L28.60 13.78Q27.75 13.78 27.09 13.49Q26.44 13.21 26.00 12.72Q25.55 12.23 25.32 11.59Q25.09 10.94 25.09 10.23L25.09 10.23Q25.09 9.40 25.39 8.68Q25.68 7.96 26.21 7.42Q26.74 6.88 27.47 6.57Q28.21 6.26 29.08 6.26L29.08 6.26Q29.93 6.26 30.59 6.55Q31.25 6.84 31.69 7.33Q32.14 7.82 32.36 8.47Q32.59 9.11 32.59 9.83L32.59 9.83Q32.59 10.66 32.30 11.39Q32.00 12.11 31.47 12.64Q30.93 13.17 30.20 13.48Q29.47 13.78 28.60 13.78ZM28.89 12.60L28.89 12.60Q29.33 12.60 29.69 12.42Q30.05 12.24 30.31 11.91Q30.57 11.59 30.71 11.14Q30.86 10.68 30.86 10.14L30.86 10.14Q30.86 9.60 30.72 9.12Q30.58 8.63 30.31 8.26Q30.04 7.89 29.66 7.67Q29.28 7.44 28.79 7.44L28.79 7.44Q28.35 7.44 27.99 7.63Q27.62 7.81 27.37 8.14Q27.11 8.47 26.97 8.92Q26.82 9.38 26.82 9.92L26.82 9.92Q26.82 10.46 26.96 10.94Q27.10 11.43 27.37 11.80Q27.64 12.17 28.02 12.38Q28.40 12.60 28.89 12.60ZM37.50 13.78L37.50 13.78Q36.65 13.78 35.99 13.49Q35.34 13.21 34.90 12.72Q34.45 12.23 34.22 11.59Q34.00 10.94 34.00 10.23L34.00 10.23Q34.00 9.40 34.29 8.68Q34.58 7.96 35.11 7.42Q35.64 6.88 36.37 6.57Q37.11 6.26 37.98 6.26L37.98 6.26Q38.83 6.26 39.49 6.55Q40.15 6.84 40.59 7.33Q41.04 7.82 41.27 8.47Q41.49 9.11 41.49 9.83L41.49 9.83Q41.49 10.66 41.20 11.39Q40.90 12.11 40.37 12.64Q39.83 13.17 39.10 13.48Q38.37 13.78 37.50 13.78ZM37.79 12.60L37.79 12.60Q38.23 12.60 38.59 12.42Q38.95 12.24 39.21 11.91Q39.47 11.59 39.61 11.14Q39.76 10.68 39.76 10.14L39.76 10.14Q39.76 9.60 39.62 9.12Q39.48 8.63 39.21 8.26Q38.94 7.89 38.56 7.67Q38.18 7.44 37.69 7.44L37.69 7.44Q37.25 7.44 36.89 7.63Q36.52 7.81 36.27 8.14Q36.01 8.47 35.87 8.92Q35.72 9.38 35.72 9.92L35.72 9.92Q35.72 10.46 35.86 10.94Q36.00 11.43 36.27 11.80Q36.54 12.17 36.92 12.38Q37.30 12.60 37.79 12.60ZM43.34 13.64L43.34 2.69L44.99 2.69L44.99 13.64L43.34 13.64ZM51.72 13.64L50.24 13.64L51.01 3.63L53.49 3.63L55.64 10.03L56.02 11.52L56.16 11.52L56.55 10.03L58.70 3.63L61.25 3.63L62.02 13.64L60.27 13.64L59.81 6.16L59.77 4.60L59.63 4.60L59.22 6.09L56.78 13.44L55.23 13.44L52.77 6.10L52.35 4.60L52.21 4.60L52.18 6.15L51.72 13.64ZM68.16 12.58L68.16 12.58Q67.98 12.73 67.73 12.94Q67.48 13.15 67.18 13.33Q66.88 13.52 66.52 13.65Q66.16 13.78 65.76 13.78L65.76 13.78Q65.36 13.78 65.01 13.63Q64.67 13.49 64.41 13.22Q64.16 12.96 64.01 12.60Q63.86 12.23 63.86 11.79L63.86 11.79Q63.86 11.32 64.05 10.88Q64.24 10.43 64.68 10.08Q65.12 9.73 65.84 9.52Q66.57 9.30 67.63 9.30L67.63 9.30L68.13 9.30L68.13 8.74Q68.13 8.44 68.03 8.20Q67.93 7.96 67.74 7.79Q67.56 7.62 67.30 7.53Q67.05 7.44 66.73 7.44L66.73 7.44Q66.49 7.44 66.21 7.50Q65.93 7.56 65.65 7.66Q65.38 7.77 65.12 7.91Q64.86 8.05 64.65 8.21L64.65 8.21L64.53 8.14L64.22 6.99Q65.04 6.56 65.75 6.41Q66.47 6.26 67.09 6.26L67.09 6.26Q67.73 6.26 68.23 6.39Q68.74 6.52 69.08 6.79Q69.43 7.06 69.61 7.48Q69.79 7.89 69.79 8.46L69.79 8.46L69.79 11.81Q69.79 11.91 69.81 12.03Q69.83 12.15 69.88 12.26Q69.93 12.37 70.03 12.45Q70.13 12.52 70.29 12.52L70.29 12.52Q70.39 12.52 70.53 12.50Q70.66 12.47 70.80 12.41L70.80 12.41L70.80 13.23Q70.43 13.48 70.06 13.63Q69.70 13.78 69.35 13.78L69.35 13.78Q69.08 13.78 68.88 13.68Q68.68 13.58 68.54 13.41Q68.41 13.24 68.31 13.03Q68.22 12.81 68.16 12.58ZM68.13 11.70L68.13 10.11L67.70 10.11Q66.99 10.11 66.56 10.21Q66.12 10.31 65.88 10.48Q65.65 10.66 65.57 10.89Q65.49 11.12 65.49 11.38L65.49 11.38Q65.49 11.66 65.57 11.87Q65.65 12.09 65.79 12.23Q65.93 12.37 66.12 12.45Q66.32 12.52 66.53 12.52L66.53 12.52Q66.70 12.52 66.88 12.49Q67.05 12.45 67.25 12.35Q67.44 12.26 67.66 12.10Q67.88 11.94 68.13 11.70L68.13 11.70ZM72.28 13.64L72.28 6.40L73.62 6.40L73.85 7.64Q74.09 7.42 74.39 7.17Q74.69 6.93 75.04 6.73Q75.40 6.53 75.79 6.40Q76.19 6.26 76.61 6.26L76.61 6.26Q77.11 6.26 77.52 6.45Q77.92 6.64 78.21 6.98Q78.50 7.31 78.65 7.79Q78.81 8.26 78.81 8.82L78.81 8.82L78.81 13.64L77.15 13.64L77.15 9.02Q77.15 8.65 77.05 8.37Q76.95 8.09 76.76 7.90Q76.58 7.72 76.33 7.62Q76.08 7.53 75.80 7.53L75.80 7.53Q75.29 7.53 74.84 7.79Q74.39 8.05 73.93 8.47L73.93 8.47L73.93 13.64L72.28 13.64ZM85.00 12.58L85.00 12.58Q84.83 12.73 84.58 12.94Q84.33 13.15 84.02 13.33Q83.72 13.52 83.36 13.65Q83.00 13.78 82.61 13.78L82.61 13.78Q82.20 13.78 81.86 13.63Q81.51 13.49 81.26 13.22Q81.00 12.96 80.85 12.60Q80.71 12.23 80.71 11.79L80.71 11.79Q80.71 11.32 80.89 10.88Q81.08 10.43 81.52 10.08Q81.96 9.73 82.69 9.52Q83.41 9.30 84.48 9.30L84.48 9.30L84.98 9.30L84.98 8.74Q84.98 8.44 84.88 8.20Q84.77 7.96 84.59 7.79Q84.40 7.62 84.15 7.53Q83.89 7.44 83.58 7.44L83.58 7.44Q83.33 7.44 83.05 7.50Q82.77 7.56 82.50 7.66Q82.22 7.77 81.96 7.91Q81.70 8.05 81.50 8.21L81.50 8.21L81.38 8.14L81.06 6.99Q81.89 6.56 82.60 6.41Q83.31 6.26 83.93 6.26L83.93 6.26Q84.57 6.26 85.08 6.39Q85.58 6.52 85.93 6.79Q86.28 7.06 86.46 7.48Q86.64 7.89 86.64 8.46L86.64 8.46L86.64 11.81Q86.64 11.91 86.66 12.03Q86.67 12.15 86.72 12.26Q86.78 12.37 86.87 12.45Q86.97 12.52 87.14 12.52L87.14 12.52Q87.23 12.52 87.37 12.50Q87.51 12.47 87.64 12.41L87.64 12.41L87.64 13.23Q87.27 13.48 86.91 13.63Q86.54 13.78 86.19 13.78L86.19 13.78Q85.92 13.78 85.72 13.68Q85.52 13.58 85.39 13.41Q85.25 13.24 85.16 13.03Q85.07 12.81 85.00 12.58ZM84.98 11.70L84.98 10.11L84.55 10.11Q83.84 10.11 83.40 10.21Q82.97 10.31 82.73 10.48Q82.49 10.66 82.41 10.89Q82.33 11.12 82.33 11.38L82.33 11.38Q82.33 11.66 82.41 11.87Q82.50 12.09 82.64 12.23Q82.78 12.37 82.97 12.45Q83.16 12.52 83.38 12.52L83.38 12.52Q83.54 12.52 83.72 12.49Q83.90 12.45 84.09 12.35Q84.29 12.26 84.51 12.10Q84.72 11.94 84.98 11.70L84.98 11.70ZM92.76 14.14L91.11 14.14Q90.95 14.23 90.78 14.35Q90.61 14.46 90.46 14.60Q90.32 14.75 90.22 14.91Q90.13 15.08 90.13 15.27L90.13 15.27Q90.13 15.48 90.24 15.65Q90.36 15.83 90.60 15.97Q90.84 16.10 91.18 16.18Q91.53 16.26 91.98 16.26L91.98 16.26Q92.50 16.26 92.91 16.15Q93.31 16.05 93.59 15.88Q93.86 15.70 94.01 15.48Q94.15 15.25 94.15 15.00L94.15 15.00Q94.15 14.79 94.04 14.63Q93.93 14.46 93.74 14.36Q93.56 14.25 93.30 14.19Q93.05 14.14 92.76 14.14L92.76 14.14ZM90.10 14.01L90.10 14.01Q89.63 13.84 89.33 13.57Q89.03 13.30 89.03 12.93L89.03 12.93Q89.03 12.71 89.15 12.50Q89.27 12.30 89.47 12.11Q89.66 11.93 89.91 11.76Q90.15 11.59 90.41 11.44L90.41 11.44Q89.98 11.25 89.68 11.00Q89.39 10.75 89.20 10.45Q89.01 10.14 88.93 9.81Q88.84 9.47 88.84 9.13L88.84 9.13Q88.84 8.48 89.12 7.95Q89.40 7.42 89.86 7.04Q90.32 6.67 90.91 6.46Q91.51 6.26 92.13 6.26L92.13 6.26Q92.61 6.26 93.06 6.38Q93.52 6.49 93.84 6.69L93.84 6.69Q94.06 6.57 94.42 6.48Q94.78 6.40 95.17 6.40L95.17 6.40L96.33 6.40L96.04 7.57L94.57 7.57Q94.61 7.62 94.69 7.73Q94.77 7.85 94.85 8.03Q94.92 8.21 94.98 8.44Q95.04 8.67 95.04 8.93L95.04 8.93Q95.04 9.50 94.77 10.00Q94.50 10.49 94.05 10.86Q93.60 11.22 93.03 11.43Q92.45 11.64 91.84 11.64L91.84 11.64Q91.71 11.64 91.58 11.63Q91.45 11.62 91.31 11.61L91.31 11.61Q91.21 11.68 91.08 11.76Q90.96 11.85 90.86 11.95Q90.75 12.04 90.69 12.16Q90.62 12.28 90.62 12.40L90.62 12.40Q90.62 12.61 90.81 12.74Q91 12.87 91.33 12.87L91.33 12.87L93.18 12.87Q93.67 12.87 94.13 12.99Q94.58 13.11 94.93 13.34Q95.27 13.57 95.48 13.90Q95.69 14.23 95.69 14.66L95.69 14.66Q95.69 15.13 95.42 15.62Q95.15 16.12 94.62 16.53Q94.10 16.93 93.32 17.19Q92.55 17.45 91.55 17.45L91.55 17.45Q90.90 17.45 90.35 17.33Q89.80 17.22 89.40 17.01Q88.99 16.80 88.76 16.51Q88.53 16.21 88.53 15.84L88.53 15.84Q88.53 15.51 88.70 15.23Q88.87 14.95 89.12 14.72Q89.37 14.49 89.63 14.31Q89.90 14.13 90.10 14.01ZM90.36 8.91L90.36 8.91Q90.36 9.26 90.48 9.56Q90.60 9.86 90.82 10.08Q91.03 10.30 91.32 10.42Q91.62 10.55 91.96 10.55L91.96 10.55Q92.29 10.55 92.58 10.44Q92.87 10.32 93.08 10.12Q93.29 9.91 93.41 9.62Q93.54 9.33 93.54 8.98L93.54 8.98Q93.54 8.63 93.42 8.33Q93.30 8.04 93.08 7.82Q92.87 7.61 92.57 7.49Q92.28 7.36 91.93 7.36L91.93 7.36Q91.60 7.36 91.32 7.47Q91.03 7.58 90.82 7.78Q90.61 7.98 90.49 8.27Q90.36 8.56 90.36 8.91ZM103.35 12.15L103.35 12.98Q103.04 13.19 102.70 13.34Q102.35 13.49 101.98 13.59Q101.61 13.69 101.24 13.74Q100.88 13.78 100.55 13.78L100.55 13.78Q99.79 13.78 99.14 13.55Q98.49 13.32 98.00 12.87Q97.52 12.41 97.25 11.75Q96.97 11.09 96.97 10.24L96.97 10.24Q96.97 9.33 97.28 8.59Q97.59 7.85 98.11 7.34Q98.62 6.82 99.30 6.54Q99.98 6.26 100.72 6.26L100.72 6.26Q101.34 6.26 101.87 6.46Q102.40 6.67 102.78 7.06Q103.17 7.46 103.39 8.05Q103.61 8.65 103.61 9.43L103.61 9.43Q103.61 9.63 103.59 9.84Q103.57 10.06 103.53 10.26L103.53 10.26L98.69 10.26Q98.69 10.81 98.89 11.24Q99.08 11.66 99.44 11.95Q99.79 12.23 100.29 12.38Q100.79 12.52 101.39 12.52L101.39 12.52Q101.56 12.52 101.79 12.51Q102.02 12.50 102.28 12.46Q102.54 12.41 102.81 12.34Q103.09 12.27 103.35 12.15L103.35 12.15ZM98.69 9.45L102.07 9.45Q102.07 8.96 101.94 8.58Q101.81 8.20 101.60 7.95Q101.38 7.70 101.09 7.57Q100.80 7.44 100.46 7.44L100.46 7.44Q100.08 7.44 99.76 7.59Q99.44 7.75 99.20 8.02Q98.96 8.29 98.83 8.65Q98.69 9.02 98.69 9.45L98.69 9.45ZM105.50 13.64L105.50 6.40L106.84 6.40L107.07 7.64Q107.31 7.42 107.61 7.17Q107.91 6.93 108.24 6.73Q108.58 6.53 108.95 6.40Q109.31 6.26 109.68 6.26L109.68 6.26Q110.01 6.26 110.32 6.37Q110.63 6.47 110.89 6.66Q111.15 6.84 111.34 7.10Q111.54 7.36 111.65 7.66L111.65 7.66Q111.92 7.44 112.21 7.19Q112.51 6.94 112.84 6.73Q113.18 6.53 113.55 6.40Q113.92 6.26 114.34 6.26L114.34 6.26Q114.85 6.26 115.25 6.46Q115.66 6.66 115.94 7.00Q116.22 7.35 116.38 7.82Q116.53 8.29 116.53 8.83L116.53 8.83L116.53 13.64L114.87 13.64L114.87 9.02Q114.87 8.33 114.52 7.93Q114.17 7.53 113.59 7.53L113.59 7.53Q113.34 7.53 113.12 7.60Q112.90 7.67 112.68 7.80Q112.47 7.92 112.26 8.10Q112.05 8.28 111.82 8.48L111.82 8.48Q111.84 8.57 111.84 8.65Q111.84 8.73 111.84 8.83L111.84 8.83L111.84 13.64L110.18 13.64L110.18 9.02Q110.18 8.67 110.09 8.40Q109.99 8.12 109.82 7.93Q109.65 7.73 109.41 7.63Q109.17 7.53 108.88 7.53L108.88 7.53Q108.64 7.53 108.42 7.60Q108.21 7.67 108.00 7.80Q107.79 7.92 107.58 8.09Q107.37 8.26 107.15 8.47L107.15 8.47L107.15 13.64L105.50 13.64ZM124.78 12.15L124.78 12.98Q124.48 13.19 124.13 13.34Q123.79 13.49 123.42 13.59Q123.05 13.69 122.68 13.74Q122.32 13.78 121.99 13.78L121.99 13.78Q121.23 13.78 120.58 13.55Q119.92 13.32 119.44 12.87Q118.96 12.41 118.69 11.75Q118.41 11.09 118.41 10.24L118.41 10.24Q118.41 9.33 118.72 8.59Q119.03 7.85 119.54 7.34Q120.06 6.82 120.74 6.54Q121.42 6.26 122.16 6.26L122.16 6.26Q122.77 6.26 123.30 6.46Q123.83 6.67 124.22 7.06Q124.61 7.46 124.82 8.05Q125.04 8.65 125.04 9.43L125.04 9.43Q125.04 9.63 125.03 9.84Q125.01 10.06 124.97 10.26L124.97 10.26L120.13 10.26Q120.13 10.81 120.32 11.24Q120.52 11.66 120.87 11.95Q121.23 12.23 121.73 12.38Q122.23 12.52 122.83 12.52L122.83 12.52Q123.00 12.52 123.23 12.51Q123.46 12.50 123.72 12.46Q123.98 12.41 124.25 12.34Q124.52 12.27 124.78 12.15L124.78 12.15ZM120.13 9.45L123.50 9.45Q123.50 8.96 123.38 8.58Q123.25 8.20 123.03 7.95Q122.81 7.70 122.52 7.57Q122.23 7.44 121.90 7.44L121.90 7.44Q121.52 7.44 121.20 7.59Q120.88 7.75 120.64 8.02Q120.40 8.29 120.26 8.65Q120.13 9.02 120.13 9.45L120.13 9.45ZM126.94 13.64L126.94 6.40L128.28 6.40L128.51 7.64Q128.75 7.42 129.05 7.17Q129.35 6.93 129.71 6.73Q130.06 6.53 130.45 6.40Q130.85 6.26 131.27 6.26L131.27 6.26Q131.77 6.26 132.18 6.45Q132.58 6.64 132.87 6.98Q133.16 7.31 133.31 7.79Q133.47 8.26 133.47 8.82L133.47 8.82L133.47 13.64L131.81 13.64L131.81 9.02Q131.81 8.65 131.71 8.37Q131.61 8.09 131.42 7.90Q131.24 7.72 130.99 7.62Q130.74 7.53 130.46 7.53L130.46 7.53Q129.95 7.53 129.50 7.79Q129.05 8.05 128.59 8.47L128.59 8.47L128.59 13.64L126.94 13.64ZM136.30 11.64L136.30 7.58L134.85 7.58L134.97 6.80Q135.51 6.67 135.83 6.49Q136.16 6.32 136.37 6.07Q136.59 5.82 136.75 5.47Q136.91 5.11 137.12 4.59L137.12 4.59L137.92 4.59L137.92 6.40L140.52 6.40L140.23 7.58L137.96 7.58L137.96 11.31Q137.96 11.65 138.06 11.88Q138.15 12.11 138.33 12.25Q138.51 12.39 138.76 12.46Q139.01 12.52 139.32 12.52L139.32 12.52Q139.62 12.52 139.92 12.47Q140.22 12.41 140.49 12.31L140.49 12.31L140.49 13.15Q140.02 13.46 139.49 13.62Q138.96 13.78 138.42 13.78L138.42 13.78Q137.39 13.78 136.85 13.22Q136.30 12.66 136.30 11.64L136.30 11.64ZM148.23 12.58L148.23 12.58Q148.64 12.58 148.99 12.47Q149.34 12.37 149.60 12.17Q149.86 11.98 150.01 11.69Q150.16 11.41 150.16 11.05L150.16 11.05Q150.16 10.63 149.96 10.34Q149.75 10.04 149.42 9.82Q149.08 9.60 148.66 9.42Q148.24 9.24 147.80 9.06Q147.36 8.87 146.93 8.65Q146.51 8.43 146.17 8.12Q145.84 7.81 145.64 7.38Q145.43 6.95 145.43 6.34L145.43 6.34Q145.43 5.67 145.69 5.15Q145.94 4.62 146.40 4.25Q146.86 3.88 147.49 3.69Q148.13 3.49 148.89 3.49L148.89 3.49Q149.12 3.49 149.41 3.51Q149.71 3.53 150.04 3.58Q150.38 3.62 150.74 3.69Q151.11 3.77 151.48 3.88L151.48 3.88L151.21 5.20L151.08 5.27Q150.72 5.11 150.38 5.00Q150.04 4.89 149.73 4.82Q149.42 4.75 149.16 4.72Q148.89 4.70 148.70 4.70L148.70 4.70Q148.32 4.70 148.01 4.79Q147.70 4.87 147.49 5.04Q147.27 5.22 147.15 5.47Q147.03 5.71 147.03 6.04L147.03 6.04Q147.03 6.47 147.24 6.77Q147.44 7.08 147.78 7.31Q148.11 7.54 148.53 7.72Q148.96 7.90 149.41 8.09Q149.86 8.28 150.28 8.50Q150.71 8.72 151.04 9.02Q151.38 9.32 151.58 9.72Q151.79 10.13 151.79 10.70L151.79 10.70Q151.79 11.33 151.52 11.89Q151.25 12.46 150.76 12.88Q150.27 13.30 149.59 13.54Q148.91 13.78 148.07 13.78L148.07 13.78Q147.72 13.78 147.35 13.74Q146.97 13.69 146.58 13.61Q146.19 13.53 145.81 13.41Q145.43 13.28 145.07 13.13L145.07 13.13L145.35 11.79L145.48 11.72Q146.21 12.11 146.90 12.35Q147.59 12.58 148.23 12.58ZM155.61 13.64L153.02 6.40L154.85 6.40L156.26 11.04L156.57 12.40L156.71 12.40L157.01 11.04L158.44 6.40L160.00 6.40L156.11 17.31L154.58 17.31L156.11 13.64L155.61 13.64ZM161.04 13.30L161.33 12.06L161.46 11.98Q161.72 12.13 162.02 12.24Q162.31 12.36 162.59 12.44Q162.88 12.52 163.15 12.56Q163.43 12.60 163.67 12.60L163.67 12.60Q164.29 12.60 164.64 12.34Q164.99 12.08 164.99 11.68L164.99 11.68Q164.99 11.40 164.83 11.22Q164.67 11.05 164.41 10.92Q164.14 10.79 163.81 10.70Q163.47 10.60 163.12 10.50Q162.77 10.39 162.44 10.25Q162.10 10.12 161.84 9.91Q161.57 9.69 161.41 9.39Q161.25 9.08 161.25 8.64L161.25 8.64Q161.25 8.14 161.47 7.70Q161.68 7.27 162.08 6.95Q162.48 6.63 163.05 6.45Q163.63 6.26 164.34 6.26L164.34 6.26Q164.51 6.26 164.75 6.28Q164.99 6.29 165.24 6.32Q165.50 6.35 165.76 6.40Q166.02 6.45 166.24 6.52L166.24 6.52L165.94 7.75L165.79 7.83Q165.59 7.73 165.35 7.66Q165.12 7.58 164.88 7.54Q164.64 7.49 164.42 7.47Q164.20 7.44 164.03 7.44L164.03 7.44Q163.43 7.44 163.09 7.68Q162.75 7.92 162.75 8.33L162.75 8.33Q162.75 8.61 162.91 8.79Q163.08 8.97 163.34 9.10Q163.60 9.22 163.95 9.31Q164.29 9.41 164.64 9.51Q164.99 9.62 165.33 9.75Q165.68 9.89 165.94 10.10Q166.20 10.32 166.37 10.62Q166.53 10.93 166.53 11.38L166.53 11.38Q166.53 11.89 166.31 12.33Q166.09 12.77 165.69 13.09Q165.29 13.41 164.72 13.60Q164.15 13.78 163.46 13.78L163.46 13.78Q162.89 13.78 162.26 13.66Q161.62 13.54 161.04 13.30L161.04 13.30ZM168.97 11.64L168.97 7.58L167.51 7.58L167.64 6.80Q168.18 6.67 168.50 6.49Q168.83 6.32 169.04 6.07Q169.26 5.82 169.42 5.47Q169.58 5.11 169.79 4.59L169.79 4.59L170.58 4.59L170.58 6.40L173.19 6.40L172.89 7.58L170.63 7.58L170.63 11.31Q170.63 11.65 170.73 11.88Q170.82 12.11 171.00 12.25Q171.18 12.39 171.43 12.46Q171.68 12.52 171.99 12.52L171.99 12.52Q172.29 12.52 172.59 12.47Q172.89 12.41 173.15 12.31L173.15 12.31L173.15 13.15Q172.69 13.46 172.16 13.62Q171.63 13.78 171.09 13.78L171.09 13.78Q170.06 13.78 169.51 13.22Q168.97 12.66 168.97 11.64L168.97 11.64ZM180.78 12.15L180.78 12.98Q180.48 13.19 180.13 13.34Q179.79 13.49 179.42 13.59Q179.05 13.69 178.68 13.74Q178.32 13.78 177.99 13.78L177.99 13.78Q177.23 13.78 176.58 13.55Q175.92 13.32 175.44 12.87Q174.96 12.41 174.69 11.75Q174.41 11.09 174.41 10.24L174.41 10.24Q174.41 9.33 174.72 8.59Q175.03 7.85 175.54 7.34Q176.06 6.82 176.74 6.54Q177.42 6.26 178.16 6.26L178.16 6.26Q178.77 6.26 179.30 6.46Q179.83 6.67 180.22 7.06Q180.61 7.46 180.82 8.05Q181.04 8.65 181.04 9.43L181.04 9.43Q181.04 9.63 181.03 9.84Q181.01 10.06 180.97 10.26L180.97 10.26L176.13 10.26Q176.13 10.81 176.32 11.24Q176.52 11.66 176.87 11.95Q177.23 12.23 177.73 12.38Q178.23 12.52 178.83 12.52L178.83 12.52Q179.00 12.52 179.23 12.51Q179.46 12.50 179.72 12.46Q179.98 12.41 180.25 12.34Q180.52 12.27 180.78 12.15L180.78 12.15ZM176.13 9.45L179.50 9.45Q179.50 8.96 179.38 8.58Q179.25 8.20 179.03 7.95Q178.81 7.70 178.52 7.57Q178.23 7.44 177.90 7.44L177.90 7.44Q177.52 7.44 177.20 7.59Q176.88 7.75 176.64 8.02Q176.40 8.29 176.26 8.65Q176.13 9.02 176.13 9.45L176.13 9.45ZM182.94 13.64L182.94 6.40L184.28 6.40L184.51 7.64Q184.75 7.42 185.05 7.17Q185.34 6.93 185.68 6.73Q186.02 6.53 186.39 6.40Q186.75 6.26 187.12 6.26L187.12 6.26Q187.45 6.26 187.76 6.37Q188.06 6.47 188.32 6.66Q188.58 6.84 188.78 7.10Q188.98 7.36 189.09 7.66L189.09 7.66Q189.36 7.44 189.65 7.19Q189.94 6.94 190.28 6.73Q190.61 6.53 190.99 6.40Q191.36 6.26 191.78 6.26L191.78 6.26Q192.29 6.26 192.69 6.46Q193.09 6.66 193.38 7.00Q193.66 7.35 193.82 7.82Q193.97 8.29 193.97 8.83L193.97 8.83L193.97 13.64L192.31 13.64L192.31 9.02Q192.31 8.33 191.96 7.93Q191.61 7.53 191.02 7.53L191.02 7.53Q190.78 7.53 190.56 7.60Q190.33 7.67 190.12 7.80Q189.91 7.92 189.70 8.10Q189.49 8.28 189.26 8.48L189.26 8.48Q189.27 8.57 189.27 8.65Q189.27 8.73 189.27 8.83L189.27 8.83L189.27 13.64L187.62 13.64L187.62 9.02Q187.62 8.67 187.52 8.40Q187.43 8.12 187.26 7.93Q187.09 7.73 186.85 7.63Q186.61 7.53 186.32 7.53L186.32 7.53Q186.08 7.53 185.86 7.60Q185.64 7.67 185.44 7.80Q185.23 7.92 185.02 8.09Q184.81 8.26 184.59 8.47L184.59 8.47L184.59 13.64L182.94 13.64Z"></path></g><defs data-v-fde0c5aa=""><linearGradient data-v-fde0c5aa="" gradientTransform="rotate(25)" id="4f57c35c-68c1-494f-a8c0-06f68b739e90" x1="0%" y1="0%" x2="100%" y2="0%"><stop data-v-fde0c5aa="" offset="0%" stop-color="#395ECA" stop-opacity="1"></stop><stop data-v-fde0c5aa="" offset="100%" stop-color="#848BD8" stop-opacity="1"></stop></linearGradient></defs><g data-v-fde0c5aa="" id="81f41fe0-2a0f-4b9d-b3bd-5f443c712098" stroke="none" fill="url(#4f57c35c-68c1-494f-a8c0-06f68b739e90)" transform="matrix(0.16427822785617055,0,0,0.16427822785617055,40.00207353917621,139.89472266108973)"><path d="M46 120.7c-.5-2.6-1.5-7.2-2.8-9.9-.2-.4-.5-1.4-.5-2.3.1-3.9.3-15.1 0-22.9 0-.5.1-1.4-1.2-2L39 82.5c-.8-.4-1.2.3-1.2.7-.4 8.7-.1 20.9 0 25.1 0 1-.4 2.1-.5 2.5-1.5 2.8-2.6 7.1-3 10-.1.7.3 1.8 1.2 1.9 1.8.2 5.3.5 9.6 0 .4 0 1.2-.9.9-2zM185.2 22.8S141.8 5.2 101 .6c-3.9-.4-10.1-1-14 0 0 0-40.6 5.9-84.2 22.2-3.7 1.4-3.8 2.7 0 3.7 0 0 28.4 13.2 84.2 22.2 3.9.6 10.1 1 14 0 0 0 51.5-10.5 84.2-22.2 3.7-1.4 3.8-2.7 0-3.7zM94 25.7c-5.4 0-9.8-1.3-9.8-2.8 0-1.5 4.4-2.8 9.8-2.8s9.8 1.3 9.8 2.8c0 1.6-4.4 2.8-9.8 2.8z"></path><path d="M94.9 56.5c-2.9 0-6.2-.3-9-.7-20.9-3.4-37.9-7.3-51.2-11-.9-.2-2.8-.1-3 1.7-.7 8.3-.8 17.1.6 24.7.4 2 1.9 3.5 2.5 3.8 38.7 16 80 17.4 118.9-.2.4-.2 1.4-1 1.6-2.2 1.8-8.6 1.8-19.3.6-28.4-.1-.8-.9-.9-1.3-.8-25.3 6.8-49.4 11.8-52.1 12.3-2 .5-4.6.8-7.6.8z"></path></g><!----></svg>