<?xml version="1.0" encoding="iso-8859-1"?>
<!-- Uploaded to: SVG Repo, www.svgrepo.com, Generator: SVG Repo Mixer Tools -->
<svg height="80%" width="80%" version="1.1" id="Layer_1" xmlns="http://www.w3.org/2000/svg" xmlns:xlink="http://www.w3.org/1999/xlink" 
	 viewBox="0 0 512 512" xml:space="preserve">
<path style="fill:#748993;" d="M316.75,256.841c48.59,23.21,108.546,14.701,148.792-25.544
	c51.051-51.05,51.051-133.819,0.001-184.87l-31.632,30.033c0.275,0.256,0.551,0.51,0.818,0.778
	c12.763,12.763,12.763,33.455,0,46.218s-33.455,12.763-46.217,0c-0.672-0.672-1.301-1.37-1.902-2.084L8.17,480.689v23.109h107.841
	V457.58h46.218v-46.218h46.217v-46.217h46.217v-46.217L316.75,256.841L316.75,256.841z"/>
<path style="fill:#A2B1B7;" d="M139.12,388.253h46.217v-46.217h46.217v-46.217l150.027-150.026
	c21.149,14.01,49.921,11.701,68.554-6.932s20.942-47.405,6.933-68.554l15.856-15.856c-2.331-2.751-4.788-5.432-7.383-8.026
	c-51.05-51.05-133.819-51.05-184.87,0c-40.246,40.246-48.755,100.202-25.544,148.793L8.17,442.174v38.514h84.733v-46.217h46.218
	L139.12,388.253z M388.512,77.237c12.763-12.763,33.455-12.763,46.217,0c12.763,12.763,12.763,33.455,0,46.218
	s-33.455,12.763-46.217,0C375.749,110.692,375.749,90,388.512,77.237z"/>
<path d="M411.621,141.198c10.912,0,21.171-4.25,28.885-11.964c7.716-7.716,11.966-17.974,11.966-28.887s-4.25-21.171-11.964-28.887
	c-7.716-7.715-17.974-11.964-28.887-11.964c-10.913,0-21.172,4.25-28.888,11.964c-15.928,15.928-15.928,41.845,0,57.772
	C390.45,136.947,400.709,141.198,411.621,141.198z M394.289,83.016c4.629-4.63,10.784-7.18,17.332-7.18
	c6.547,0,12.702,2.55,17.331,7.18c4.63,4.629,7.18,10.784,7.18,17.331c0,6.547-2.55,12.702-7.18,17.331
	c-4.629,4.63-10.784,7.18-17.331,7.18c-6.548,0-12.703-2.55-17.332-7.18C384.732,108.12,384.732,92.572,394.289,83.016z"/>
<path d="M471.319,40.647c-54.155-54.153-142.271-54.153-196.426,0c-40.176,40.177-51.703,100.898-29.538,152.787L2.392,436.396
	C0.861,437.929,0,440.007,0,442.174v61.623c0,4.513,3.657,8.17,8.17,8.17h107.841c4.513,0,8.17-3.657,8.17-8.17V465.75h38.047
	c4.512,0,8.17-3.657,8.17-8.17l0.001-38.048h38.047c4.513,0,8.17-3.657,8.17-8.17v-38.048h38.048c4.513,0,8.17-3.657,8.17-8.17
	v-46.217c0-4.513-3.657-8.17-8.17-8.17c-4.513,0-8.17,3.657-8.17,8.17v38.047h-38.048c-4.513,0-8.17,3.657-8.17,8.17v38.048H162.23
	c-4.512,0-8.17,3.657-8.17,8.17l-0.001,38.048h-38.047c-4.513,0-8.17,3.657-8.17,8.17v38.047H16.34v-50.069l244.564-244.563
	c2.448-2.449,3.087-6.174,1.595-9.299c-22.341-46.771-12.716-102.829,23.95-139.494c23.147-23.148,53.922-35.894,86.658-35.894
	s63.511,12.747,86.658,35.894c23.148,23.147,35.896,53.923,35.896,86.659s-12.748,63.511-35.896,86.658
	c-36.664,36.667-92.719,46.291-139.493,23.95c-3.125-1.494-6.85-0.853-9.299,1.595l-38.976,38.976
	c-3.191,3.192-3.191,8.364,0,11.555c3.192,3.19,8.364,3.19,11.555,0l34.982-34.983c51.893,22.165,112.612,10.634,152.786-29.538
	C497.552,210.84,512,175.961,512,138.861S497.552,66.881,471.319,40.647z"/>
</svg>